<?xml version="1.0" encoding="UTF-8"?>
<svg width="16" height="16" viewBox="0 0 16 16" xmlns="http://www.w3.org/2000/svg">
  <path fill="#2e3436" d="M2 4.5 C2 3.7 2.7 3 3.5 3 H6 l1.5 1.5 H12.5 C13.3 4.5 14 5.2 14 6 v5.5 c0 .8-.7 1.5-1.5 1.5 h-9 C2.7 13 2 12.3 2 11.5 Z M8 6.5 a 3 3 0 0 0 -2.6 1.5 l 1.1 .6 A 1.75 1.75 0 0 1 8 7.75 c .5 0 1 .2 1.3 .55 L 8.5 9 H 11 V 6.5 l -.85 .85 A 3 3 0 0 0 8 6.5 Z M 5 8.75 v 2.5 l .85 -.85 a 3 3 0 0 0 4.75 -.65 l -1.1 -.6 a 1.75 1.75 0 0 1 -2.8 .35 L 7.5 8.75 Z"/>
</svg>
